<?xml version="1.0" encoding="UTF-8" standalone="no"?>
<!DOCTYPE svg PUBLIC "-//W3C//DTD SVG 1.1//EN" "http://www.w3.org/Graphics/SVG/1.1/DTD/svg11.dtd">
<svg width="100%" height="100%" viewBox="0 0 131 131" version="1.1" xmlns="http://www.w3.org/2000/svg" xmlns:xlink="http://www.w3.org/1999/xlink" xml:space="preserve" xmlns:serif="http://www.serif.com/" style="fill-rule:evenodd;clip-rule:evenodd;stroke-linejoin:round;stroke-miterlimit:1.41421;">
    <g transform="matrix(1,0,0,1,-90.8518,-253.017)">
        <g>
            <g transform="matrix(1,0,0,1,156.174,280.338)">
                <path d="M0,75.574C-20.752,75.574 -37.575,58.75 -37.575,38C-37.575,17.246 -20.752,0.424 0,0.424C20.754,0.424 37.576,17.246 37.576,38C37.576,58.75 20.754,75.574 0,75.574M53.254,37.662L49.96,37.662C49.941,35.662 49.605,31.142 48.973,28.018L52.199,27.376L64.025,24.992C63.074,20.283 61.596,15.676 59.628,11.294L48.621,16.233L45.604,17.582C44.246,14.551 42.593,11.679 40.682,9.003L43.371,7.083L53.19,0.071C50.409,-3.824 47.188,-7.423 43.62,-10.627L35.558,-1.645L33.36,0.805C30.906,-1.399 28.231,-3.356 25.375,-5.044L27.053,-7.882L33.194,-18.271C29.054,-20.717 24.64,-22.703 20.076,-24.176L16.369,-12.692L15.357,-9.554C12.257,-10.555 9.021,-11.259 5.689,-11.637L6.061,-14.914L7.417,-26.907C2.686,-27.439 -2.186,-27.461 -6.917,-26.961L-5.653,-14.962L-5.307,-11.685C-8.645,-11.334 -11.883,-10.654 -14.992,-9.678L-15.979,-12.82L-19.596,-24.329C-24.172,-22.892 -28.599,-20.94 -32.755,-18.526L-26.698,-8.093L-25.039,-5.237C-27.908,-3.57 -30.596,-1.632 -33.067,0.551L-35.25,-1.919L-43.242,-10.962C-46.834,-7.788 -50.081,-4.214 -52.895,-0.336L-43.127,6.751L-40.458,8.689C-42.39,11.351 -44.064,14.211 -45.446,17.233L-48.449,15.86L-59.421,10.838C-61.42,15.208 -62.936,19.805 -63.924,24.505L-52.114,26.987L-48.892,27.666C-49.561,30.845 -49.921,34.135 -49.954,37.506L-53.251,37.472L-65.318,37.353C-65.32,37.569 -65.322,37.783 -65.322,38C-65.322,42.59 -64.841,47.179 -63.893,51.637L-52.088,49.129L-48.866,48.442C-48.171,51.711 -47.154,54.862 -45.854,57.863L-48.877,59.172L-59.948,63.976C-58.043,68.369 -55.641,72.566 -52.813,76.446L-43.061,69.338L-40.396,67.395C-38.446,70.07 -36.241,72.545 -33.809,74.782L-36.038,77.208L-44.206,86.089C-40.673,89.338 -36.78,92.198 -32.633,94.595L-26.599,84.146L-24.945,81.287C-22.105,82.928 -19.09,84.295 -15.933,85.355L-16.985,88.49L-20.831,99.924C-16.285,101.453 -11.556,102.477 -6.773,102.972L-5.534,90.971L-5.195,87.697C-3.488,87.873 -1.754,87.965 0,87.965C1.588,87.965 3.155,87.883 4.707,87.738L5.012,91.019L6.135,103.035C10.92,102.59 15.66,101.609 20.214,100.129L16.484,88.652L15.464,85.513C18.632,84.486 21.661,83.146 24.516,81.533L26.138,84.407L32.071,94.916C36.241,92.562 40.162,89.741 43.725,86.528L35.646,77.566L33.441,75.119C35.896,72.907 38.13,70.458 40.107,67.803L42.748,69.767L52.425,76.97C55.294,73.119 57.738,68.944 59.69,64.568L48.668,59.656L45.651,58.31C46.977,55.335 48.019,52.211 48.745,48.963L51.969,49.679L63.509,52.268C64.549,47.609 64.826,42.808 64.826,38L64.826,37.662L53.254,37.662Z" style="fill:white;fill-rule:nonzero;"/>
            </g>
            <g transform="matrix(1,0,0,1,156.174,337.117)">
                <ellipse cx="0" cy="-18.78" rx="18.78" ry="18.78" style="fill:white;"/>
            </g>
        </g>
    </g>
</svg>
