<?xml version="1.0" encoding="UTF-8" standalone="no"?>
<!DOCTYPE svg PUBLIC "-//W3C//DTD SVG 1.1//EN" "http://www.w3.org/Graphics/SVG/1.1/DTD/svg11.dtd">
<svg width="100%" height="100%" viewBox="0 0 133 132" version="1.1" xmlns="http://www.w3.org/2000/svg" xmlns:xlink="http://www.w3.org/1999/xlink" xml:space="preserve" xmlns:serif="http://www.serif.com/" style="fill-rule:evenodd;clip-rule:evenodd;stroke-linejoin:round;stroke-miterlimit:1.41421;">
    <g transform="matrix(1,0,0,1,-578.494,-252.037)">
        <g transform="matrix(1,0,0,1,617.314,294.507)">
            <path d="M0,46.823C-5.404,40.553 -8.68,32.395 -8.68,23.468C-8.68,10.132 -1.383,-1.491 9.43,-7.651L18.738,9.967C14.227,12.774 11.213,17.762 11.213,23.468C11.213,27.167 12.486,30.561 14.604,33.262L0,46.823ZM62.916,23.394L43.023,23.44C43.008,14.669 35.895,7.562 27.119,7.562C26.098,7.562 25.1,7.667 24.131,7.852L20.955,-11.791C22.959,-12.139 25.016,-12.331 27.119,-12.331C46.867,-12.331 62.877,3.656 62.916,23.394M27.119,59.267C20.732,59.267 14.74,57.587 9.549,54.656L18.793,37.002C21.217,38.497 24.062,39.374 27.119,39.374C34.143,39.374 40.092,34.815 42.199,28.5L60.695,35.907C55.641,49.546 42.518,59.267 27.119,59.267M82.572,23.493C82.57,20.493 82.252,16.796 81.672,13.584L92.01,11.709C90.939,5.784 89.061,0.032 86.424,-5.378L76.994,-0.786C75.566,-3.716 73.881,-6.498 71.98,-9.112L80.471,-15.29C76.939,-20.144 72.764,-24.496 68.059,-28.225L61.535,-19.995C59,-22.005 56.293,-23.808 53.426,-25.356L58.408,-34.587C53.105,-37.449 47.439,-39.566 41.57,-40.88L39.277,-30.631C36.156,-31.329 32.939,-31.773 29.643,-31.92L30.109,-42.405C24.172,-42.67 18.084,-42.128 12.268,-40.789L14.625,-30.553C11.43,-29.817 8.334,-28.817 5.375,-27.555L1.258,-37.203C-4.262,-34.848 -9.441,-31.743 -14.135,-27.975L-7.562,-19.787C-10.094,-17.755 -12.439,-15.506 -14.578,-13.068L-22.473,-19.992C-26.441,-15.467 -29.77,-10.428 -32.365,-5.017L-22.906,-0.482C-24.299,2.42 -25.432,5.466 -26.307,8.62L-36.432,5.814C-38.018,11.537 -38.82,17.458 -38.82,23.438L-38.814,23.82L-28.332,23.555C-28.326,26.867 -28.016,30.104 -27.455,33.256L-37.795,35.097C-36.74,41.024 -34.873,46.776 -32.248,52.196L-22.809,47.622C-21.385,50.555 -19.705,53.339 -17.809,55.956L-26.311,62.118C-22.789,66.978 -18.623,71.339 -13.928,75.077L-7.387,66.862C-4.855,68.877 -2.152,70.686 0.711,72.24L-4.291,81.458C1.004,84.331 6.666,86.46 12.535,87.786L14.852,77.542C17.971,78.247 21.186,78.7 24.48,78.854L23.99,89.378C25.027,89.427 26.078,89.493 27.117,89.493L27.125,89.493C32.088,89.493 37.039,88.907 41.84,87.81L39.494,77.525C42.695,76.796 45.797,75.8 48.76,74.542L52.855,84.196C58.379,81.852 63.564,78.757 68.268,74.998L61.711,66.794C64.246,64.767 66.598,62.525 68.74,60.09L76.623,67.03C80.6,62.514 83.938,57.483 86.543,52.076L77.098,47.522C78.5,44.613 79.641,41.557 80.523,38.393L90.946,41.24C92.556,35.477 93.686,29.497 93.686,23.468L93.686,23.493L82.572,23.493Z" style="fill:white;fill-rule:nonzero;"/>
        </g>
    </g>
</svg>
