<?xml version="1.0" encoding="UTF-8" standalone="no"?>
<!DOCTYPE svg PUBLIC "-//W3C//DTD SVG 1.1//EN" "http://www.w3.org/Graphics/SVG/1.1/DTD/svg11.dtd">
<svg width="100%" height="100%" viewBox="0 0 228 419" version="1.1" xmlns="http://www.w3.org/2000/svg" xmlns:xlink="http://www.w3.org/1999/xlink" xml:space="preserve" xmlns:serif="http://www.serif.com/" style="fill-rule:evenodd;clip-rule:evenodd;stroke-linejoin:round;stroke-miterlimit:1.41421;">
    <g transform="matrix(1,0,0,1,-286.054,-160.146)">
        <g>
            <g>
                <g opacity="0.699997">
                    <g transform="matrix(1,0,0,1,382.941,561.924)">
                        <path d="M0,-46.429C0,-50.927 -3.647,-54.575 -8.146,-54.575C-12.644,-54.575 -16.291,-50.927 -16.291,-46.429C-16.291,-41.931 -8.146,8.146 -8.146,8.146C-8.146,8.146 0,-41.931 0,-46.429" style="fill:none;stroke:white;stroke-width:2px;"/>
                    </g>
                </g>
            </g>
            <g>
                <g opacity="0.699997">
                    <g transform="matrix(1,0,0,1,433.853,569.958)">
                        <path d="M0,-46.429C0,-50.927 -3.647,-54.575 -8.146,-54.575C-12.644,-54.575 -16.292,-50.927 -16.292,-46.429C-16.292,-41.931 -8.146,8.146 -8.146,8.146C-8.146,8.146 0,-41.931 0,-46.429" style="fill:none;stroke:white;stroke-width:2px;"/>
                    </g>
                </g>
            </g>
            <g transform="matrix(-1,-0,0,1,800.001,184)">
                <rect x="367.659" y="297.333" width="64.683" height="21.334" style="fill:none;stroke:white;stroke-width:2px;"/>
            </g>
            <g transform="matrix(-1,-0,0,1,767.659,184)">
                <rect x="367.659" y="297.333" width="32.341" height="21.334" style="fill:none;stroke:white;stroke-width:2px;"/>
            </g>
            <g transform="matrix(1,0,0,1,400,463.466)">
                <path d="M0,10.27C47.885,10.27 88.78,40.077 105.203,82.141C110.184,69.416 112.944,55.575 112.945,41.079C112.944,-21.307 62.377,-71.873 0.002,-71.872C-62.375,-71.867 -112.947,-21.304 -112.946,41.077C-112.945,55.574 -110.189,69.416 -105.212,82.143C-88.777,40.077 -47.882,10.271 0,10.27" style="fill:none;stroke:white;stroke-width:2px;"/>
            </g>
            <g transform="matrix(1,0,0,1,428.836,545.607)">
                <path d="M0,-150.275L0,-68.073C35.002,-58.842 63.362,-33.294 76.367,0C81.349,-12.725 84.108,-26.566 84.109,-41.062C84.105,-93.477 48.403,-137.533 0,-150.275" style="fill:none;stroke:white;stroke-width:2px;"/>
            </g>
            <g transform="matrix(1,0,0,1,400,167.307)">
                <path d="M0,321.109C13.89,321.109 27.277,323.282 39.852,327.27C58.508,289.499 69.772,240.782 69.772,187.546C69.771,102.978 41.4,29.756 0.001,-6.161C-41.404,29.756 -69.779,102.976 -69.779,187.543C-69.777,240.779 -58.515,289.502 -39.847,327.27C-27.281,323.284 -13.891,321.107 0,321.109" style="fill:none;stroke:white;stroke-width:2px;"/>
            </g>
            <g transform="matrix(1,0,0,1,400.001,494.577)">
                <path d="M0,-333.431C-0.136,-333.314 -0.265,-333.17 -0.406,-333.055L-0.404,-6.145C-0.274,-6.147 -0.135,-6.161 -0.001,-6.161C13.889,-6.161 27.276,-3.989 39.851,0C58.507,-37.772 69.771,-86.489 69.771,-139.724C69.77,-224.292 41.399,-297.514 0,-333.431" style="fill:none;stroke:white;stroke-width:2px;"/>
            </g>
            <g transform="matrix(1,0,0,1,400.001,162.88)">
                <path d="M0,78.326C17.54,78.328 34.727,78.941 51.496,80.06C39.182,45.274 21.343,16.782 0,-1.734C-21.345,16.784 -39.186,45.274 -51.501,80.058C-34.73,78.944 -17.544,78.327 0,78.326" style="fill:none;stroke:white;stroke-width:2px;"/>
            </g>
            <g transform="matrix(1,0,0,1,399.597,242.579)">
                <path d="M0,-81.07L0,-1.366C0.13,-1.363 0.27,-1.371 0.404,-1.373C17.944,-1.371 35.131,-0.758 51.9,0.362C39.586,-34.424 21.748,-62.917 0.404,-81.432C0.269,-81.315 0.129,-81.182 0,-81.07" style="fill:none;stroke:white;stroke-width:2px;"/>
            </g>
            <g transform="matrix(1,0,0,1,400.003,545.889)">
                <path d="M0,-161.143C-8.884,-146.192 -14.973,-115.743 -14.974,-80.571C-14.975,-45.403 -8.885,-14.952 -0.001,0C8.877,-14.952 14.97,-45.403 14.973,-80.573C14.972,-115.74 8.876,-146.194 0,-161.143" style="fill:none;stroke:white;stroke-width:2px;"/>
            </g>
            <g transform="matrix(1,0,0,1,399.597,545.158)">
                <path d="M0,-159.68L-0.001,-0.007C0.14,0.231 0.268,0.498 0.404,0.731C9.283,-14.22 15.375,-44.671 15.378,-79.841C15.377,-115.008 9.282,-145.462 0.406,-160.411C0.272,-160.178 0.14,-159.907 0,-159.68" style="fill:none;stroke:white;stroke-width:2px;"/>
            </g>
            <g transform="matrix(1,0,0,1,400,276.43)">
                <path d="M0,78.42C-21.621,78.42 -39.211,60.834 -39.214,39.206C-39.213,17.587 -21.623,-0.001 -0.002,0.001C21.617,0.001 39.208,17.586 39.206,39.208C39.208,60.836 21.619,78.421 0,78.42" style="fill:none;stroke:white;stroke-width:2px;"/>
            </g>
            <g transform="matrix(1,0,0,1,400,342.881)">
                <ellipse cx="-0.001" cy="-27.242" rx="27.25" ry="27.245" style="fill:none;stroke:white;stroke-width:2px;"/>
            </g>
            <g transform="matrix(1,0,0,1,399.998,354.852)">
                <path d="M0,-78.421C-0.131,-78.419 -0.261,-78.405 -0.401,-78.407L-0.403,-66.438C-0.272,-66.439 -0.133,-66.456 0.002,-66.454C15.023,-66.456 27.248,-54.234 27.248,-39.215C27.251,-24.183 15.023,-11.969 0.002,-11.968C-0.131,-11.969 -0.27,-11.987 -0.402,-11.989L-0.4,-0.031C-0.262,-0.031 -0.13,-0.002 0.002,-0.002C21.621,0 39.21,-17.586 39.208,-39.213C39.21,-60.836 21.619,-78.421 0,-78.421" style="fill:none;stroke:white;stroke-width:2px;"/>
            </g>
            <g transform="matrix(1,0,0,1,427.246,315.643)">
                <path d="M0,-0.006C0,-15.025 -12.225,-27.247 -27.246,-27.245C-27.381,-27.247 -27.52,-27.23 -27.651,-27.229L-27.65,27.22C-27.518,27.222 -27.379,27.24 -27.246,27.241C-12.225,27.24 0.003,15.026 0,-0.006" style="fill:none;stroke:white;stroke-width:2px;"/>
            </g>
        </g>
    </g>
</svg>
