<?xml version="1.0" encoding="UTF-8" standalone="no"?>
<!DOCTYPE svg PUBLIC "-//W3C//DTD SVG 1.1//EN" "http://www.w3.org/Graphics/SVG/1.1/DTD/svg11.dtd">
<svg width="100%" height="100%" viewBox="0 0 133 133" version="1.1" xmlns="http://www.w3.org/2000/svg" xmlns:xlink="http://www.w3.org/1999/xlink" xml:space="preserve" xmlns:serif="http://www.serif.com/" style="fill-rule:evenodd;clip-rule:evenodd;stroke-linejoin:round;stroke-miterlimit:1.41421;">
    <g transform="matrix(1,0,0,1,-578.505,-412.966)">
        <g transform="matrix(1,0,0,1,622.359,478.991)">
            <path d="M0,-0.016C0,-12.205 9.885,-22.089 22.074,-22.089C34.264,-22.089 44.146,-12.205 44.146,-0.016C44.146,12.176 34.264,22.057 22.074,22.057C9.885,22.057 0,12.176 0,-0.016M-1.123,32.497C0.377,29.537 3.986,28.009 6.947,30.009L6.937,30.009C9.896,31.009 11.076,34.976 9.566,37.936C8.506,40.016 6.396,41.145 4.217,41.145C3.297,41.145 2.377,40.877 1.496,40.427C-1.453,38.927 -2.633,35.447 -1.123,32.497M21.768,-39.826C22.297,-36.556 20.066,-33.486 16.787,-32.966C16.467,-32.906 16.156,-32.886 15.836,-32.886C12.938,-32.886 10.387,-34.986 9.916,-37.946C9.396,-41.216 11.627,-44.286 14.896,-44.806C18.178,-45.336 21.246,-43.106 21.768,-39.826M62.447,-20.706C63.957,-17.756 62.797,-14.146 59.848,-12.636C58.967,-12.186 58.037,-11.966 57.117,-11.966C54.938,-11.966 52.826,-13.166 51.768,-15.236C50.256,-18.186 51.428,-21.796 54.377,-23.316C57.316,-24.826 60.938,-23.656 62.447,-20.706M-22.744,-7.056C-22.232,-10.336 -19.164,-12.566 -15.883,-12.056C-12.613,-11.546 -10.373,-8.476 -10.883,-5.206C-11.354,-2.245 -13.902,-0.126 -16.803,-0.126C-17.113,-0.126 -17.424,-0.156 -17.744,-0.206C-21.014,-0.716 -23.254,-3.786 -22.744,-7.056M54.246,31.964C54.227,31.984 54.454,32.005 54.435,32.024C54.425,32.034 54.641,32.044 54.641,32.054L54.641,32.064C52.641,33.234 51.685,33.814 50.153,33.814C48.614,33.814 46.959,33.234 45.789,32.064C43.439,29.714 43.378,25.914 45.728,23.574C45.749,23.554 45.738,23.534 45.758,23.505C48.098,21.154 51.883,21.144 54.232,23.484C56.582,25.814 56.576,29.614 54.246,31.964M77.527,0.009C77.525,-2.991 77.219,-6.562 76.66,-9.716L87.002,-11.554C84.631,-24.969 78.244,-37.161 68.537,-46.801L61.145,-39.358C58.881,-41.606 56.42,-43.653 53.797,-45.485L60.087,-54.128C48.997,-61.886 35.641,-66.009 22.641,-66.025L22.641,-55.465C21.641,-55.465 22.345,-55.467 22.321,-55.467C19.022,-55.467 15.674,-55.162 12.533,-54.611L10.651,-64.956C-2.765,-62.596 -14.988,-56.223 -24.637,-46.526L-17.217,-39.126C-19.459,-36.872 -21.508,-34.42 -23.338,-31.81L-31.937,-37.817C-39.732,-26.698 -43.852,-13.991 -43.854,0.009L-33.359,0.009L-33.359,-0.016C-33.359,3.263 -33.067,6.471 -32.522,9.594L-42.875,11.403C-40.527,24.822 -34.169,37.021 -24.481,46.68L-17.076,39.253C-14.82,41.502 -12.365,43.547 -9.75,45.383L-15.797,54.013C-4.664,61.834 8.432,66.009 22.074,66.009L22.125,66.009L22.107,55.454C25.355,55.452 28.533,55.147 31.629,54.609L33.428,64.953C46.85,62.619 59.055,56.269 68.725,46.589L61.305,39.176C63.564,36.915 65.617,34.45 67.459,31.828L76.335,37.912C84.181,26.768 88.641,13.652 88.641,-0.016L88.641,0.009L77.527,0.009Z" style="fill:white;fill-rule:nonzero;"/>
        </g>
    </g>
</svg>
