<?xml version="1.0" encoding="UTF-8" standalone="no"?>
<!DOCTYPE svg PUBLIC "-//W3C//DTD SVG 1.1//EN" "http://www.w3.org/Graphics/SVG/1.1/DTD/svg11.dtd">
<svg width="100%" height="100%" viewBox="0 0 2244 2234" version="1.1" xmlns="http://www.w3.org/2000/svg" xmlns:xlink="http://www.w3.org/1999/xlink" xml:space="preserve" xmlns:serif="http://www.serif.com/" style="fill-rule:evenodd;clip-rule:evenodd;stroke-linecap:round;stroke-miterlimit:1;">
    <g transform="matrix(1,0,0,1,0,-1.0002)">
        <g transform="matrix(1,0,0,1,0,1)">
            <g opacity="0.5">
                <g>
                    <g>
                        <g>
                            <g transform="matrix(1,0,0,1,0,-80.7788)">
                                <path d="M0,80.779L2267.72,80.779" style="fill:none;stroke:white;stroke-width:1.33px;stroke-dasharray:1.33,6.67,0,0;"/>
                            </g>
                            <g transform="matrix(1,0,0,1,0,-40.7788)">
                                <path d="M0,80.779L2267.72,80.779" style="fill:none;stroke:white;stroke-width:1.33px;stroke-dasharray:1.33,6.67,0,0;"/>
                            </g>
                            <g transform="matrix(1,0,0,1,0,-0.77876)">
                                <path d="M0,80.779L2267.72,80.779" style="fill:none;stroke:white;stroke-width:1.33px;stroke-dasharray:1.33,6.67,0,0;"/>
                            </g>
                            <g transform="matrix(1,0,0,1,0,39.2212)">
                                <path d="M0,80.779L2267.72,80.779" style="fill:none;stroke:white;stroke-width:1.33px;stroke-dasharray:1.33,6.67,0,0;"/>
                            </g>
                        </g>
                        <g transform="matrix(1,0,0,1,0,320)">
                            <g transform="matrix(1,0,0,1,0,-80.7788)">
                                <path d="M0,80.779L2267.72,80.779" style="fill:none;stroke:white;stroke-width:1.33px;stroke-dasharray:1.33,6.67,0,0;"/>
                            </g>
                            <g transform="matrix(1,0,0,1,0,-40.7788)">
                                <path d="M0,80.779L2267.72,80.779" style="fill:none;stroke:white;stroke-width:1.33px;stroke-dasharray:1.33,6.67,0,0;"/>
                            </g>
                            <g transform="matrix(1,0,0,1,0,-0.77876)">
                                <path d="M0,80.779L2267.72,80.779" style="fill:none;stroke:white;stroke-width:1.33px;stroke-dasharray:1.33,6.67,0,0;"/>
                            </g>
                            <g transform="matrix(1,0,0,1,0,39.2212)">
                                <path d="M0,80.779L2267.72,80.779" style="fill:none;stroke:white;stroke-width:1.33px;stroke-dasharray:1.33,6.67,0,0;"/>
                            </g>
                        </g>
                        <g transform="matrix(1,0,0,1,0,640)">
                            <g transform="matrix(1,0,0,1,0,-80.7788)">
                                <path d="M0,80.779L2267.72,80.779" style="fill:none;stroke:white;stroke-width:1.33px;stroke-dasharray:1.33,6.67,0,0;"/>
                            </g>
                            <g transform="matrix(1,0,0,1,0,-40.7788)">
                                <path d="M0,80.779L2267.72,80.779" style="fill:none;stroke:white;stroke-width:1.33px;stroke-dasharray:1.33,6.67,0,0;"/>
                            </g>
                            <g transform="matrix(1,0,0,1,0,-0.77876)">
                                <path d="M0,80.779L2267.72,80.779" style="fill:none;stroke:white;stroke-width:1.33px;stroke-dasharray:1.33,6.67,0,0;"/>
                            </g>
                            <g transform="matrix(1,0,0,1,0,39.2212)">
                                <path d="M0,80.779L2267.72,80.779" style="fill:none;stroke:white;stroke-width:1.33px;stroke-dasharray:1.33,6.67,0,0;"/>
                            </g>
                        </g>
                        <g transform="matrix(1,0,0,1,0,160)">
                            <g transform="matrix(1,0,0,1,0,-80.7788)">
                                <path d="M0,80.779L2267.72,80.779" style="fill:none;stroke:white;stroke-width:1.33px;stroke-dasharray:1.33,6.67,0,0;"/>
                            </g>
                            <g transform="matrix(1,0,0,1,0,-40.7788)">
                                <path d="M0,80.779L2267.72,80.779" style="fill:none;stroke:white;stroke-width:1.33px;stroke-dasharray:1.33,6.67,0,0;"/>
                            </g>
                            <g transform="matrix(1,0,0,1,0,-0.77876)">
                                <path d="M0,80.779L2267.72,80.779" style="fill:none;stroke:white;stroke-width:1.33px;stroke-dasharray:1.33,6.67,0,0;"/>
                            </g>
                            <g transform="matrix(1,0,0,1,0,39.2212)">
                                <path d="M0,80.779L2267.72,80.779" style="fill:none;stroke:white;stroke-width:1.33px;stroke-dasharray:1.33,6.67,0,0;"/>
                            </g>
                        </g>
                        <g transform="matrix(1,0,0,1,0,480)">
                            <g transform="matrix(1,0,0,1,0,-80.7788)">
                                <path d="M0,80.779L2267.72,80.779" style="fill:none;stroke:white;stroke-width:1.33px;stroke-dasharray:1.33,6.67,0,0;"/>
                            </g>
                            <g transform="matrix(1,0,0,1,0,-40.7788)">
                                <path d="M0,80.779L2267.72,80.779" style="fill:none;stroke:white;stroke-width:1.33px;stroke-dasharray:1.33,6.67,0,0;"/>
                            </g>
                            <g transform="matrix(1,0,0,1,0,-0.77876)">
                                <path d="M0,80.779L2267.72,80.779" style="fill:none;stroke:white;stroke-width:1.33px;stroke-dasharray:1.33,6.67,0,0;"/>
                            </g>
                            <g transform="matrix(1,0,0,1,0,39.2212)">
                                <path d="M0,80.779L2267.72,80.779" style="fill:none;stroke:white;stroke-width:1.33px;stroke-dasharray:1.33,6.67,0,0;"/>
                            </g>
                        </g>
                        <g transform="matrix(1,0,0,1,0,800)">
                            <g transform="matrix(1,0,0,1,0,-80.7788)">
                                <path d="M0,80.779L2267.72,80.779" style="fill:none;stroke:white;stroke-width:1.33px;stroke-dasharray:1.33,6.67,0,0;"/>
                            </g>
                            <g transform="matrix(1,0,0,1,0,-40.7788)">
                                <path d="M0,80.779L2267.72,80.779" style="fill:none;stroke:white;stroke-width:1.33px;stroke-dasharray:1.33,6.67,0,0;"/>
                            </g>
                            <g transform="matrix(1,0,0,1,0,-0.77876)">
                                <path d="M0,80.779L2267.72,80.779" style="fill:none;stroke:white;stroke-width:1.33px;stroke-dasharray:1.33,6.67,0,0;"/>
                            </g>
                            <g transform="matrix(1,0,0,1,0,39.2212)">
                                <path d="M0,80.779L2267.72,80.779" style="fill:none;stroke:white;stroke-width:1.33px;stroke-dasharray:1.33,6.67,0,0;"/>
                            </g>
                        </g>
                    </g>
                    <g transform="matrix(1,0,0,1,0,960)">
                        <g transform="matrix(1,0,0,1,0,-80.7788)">
                            <path d="M0,80.779L2267.72,80.779" style="fill:none;stroke:white;stroke-width:1.33px;stroke-dasharray:1.33,6.67,0,0;"/>
                        </g>
                        <g transform="matrix(1,0,0,1,0,-40.7788)">
                            <path d="M0,80.779L2267.72,80.779" style="fill:none;stroke:white;stroke-width:1.33px;stroke-dasharray:1.33,6.67,0,0;"/>
                        </g>
                        <g transform="matrix(1,0,0,1,0,-0.77876)">
                            <path d="M0,80.779L2267.72,80.779" style="fill:none;stroke:white;stroke-width:1.33px;stroke-dasharray:1.33,6.67,0,0;"/>
                        </g>
                        <g transform="matrix(1,0,0,1,0,39.2212)">
                            <path d="M0,80.779L2267.72,80.779" style="fill:none;stroke:white;stroke-width:1.33px;stroke-dasharray:1.33,6.67,0,0;"/>
                        </g>
                    </g>
                    <g transform="matrix(1,0,0,1,0,1280)">
                        <g transform="matrix(1,0,0,1,0,-80.7788)">
                            <path d="M0,80.779L2267.72,80.779" style="fill:none;stroke:white;stroke-width:1.33px;stroke-dasharray:1.33,6.67,0,0;"/>
                        </g>
                        <g transform="matrix(1,0,0,1,0,-40.7788)">
                            <path d="M0,80.779L2267.72,80.779" style="fill:none;stroke:white;stroke-width:1.33px;stroke-dasharray:1.33,6.67,0,0;"/>
                        </g>
                        <g transform="matrix(1,0,0,1,0,-0.77876)">
                            <path d="M0,80.779L2267.72,80.779" style="fill:none;stroke:white;stroke-width:1.33px;stroke-dasharray:1.33,6.67,0,0;"/>
                        </g>
                        <g transform="matrix(1,0,0,1,0,39.2212)">
                            <path d="M0,80.779L2267.72,80.779" style="fill:none;stroke:white;stroke-width:1.33px;stroke-dasharray:1.33,6.67,0,0;"/>
                        </g>
                    </g>
                    <g transform="matrix(1,0,0,1,0,1600)">
                        <g transform="matrix(1,0,0,1,0,-80.7788)">
                            <path d="M0,80.779L2267.72,80.779" style="fill:none;stroke:white;stroke-width:1.33px;stroke-dasharray:1.33,6.67,0,0;"/>
                        </g>
                        <g transform="matrix(1,0,0,1,0,-40.7788)">
                            <path d="M0,80.779L2267.72,80.779" style="fill:none;stroke:white;stroke-width:1.33px;stroke-dasharray:1.33,6.67,0,0;"/>
                        </g>
                        <g transform="matrix(1,0,0,1,0,-0.77876)">
                            <path d="M0,80.779L2267.72,80.779" style="fill:none;stroke:white;stroke-width:1.33px;stroke-dasharray:1.33,6.67,0,0;"/>
                        </g>
                        <g transform="matrix(1,0,0,1,0,39.2212)">
                            <path d="M0,80.779L2267.72,80.779" style="fill:none;stroke:white;stroke-width:1.33px;stroke-dasharray:1.33,6.67,0,0;"/>
                        </g>
                    </g>
                    <g transform="matrix(1,0,0,1,0,2080)">
                        <g transform="matrix(1,0,0,1,0,-80.7788)">
                            <path d="M0,80.779L2267.72,80.779" style="fill:none;stroke:white;stroke-width:1.33px;stroke-dasharray:1.33,6.67,0,0;"/>
                        </g>
                        <g transform="matrix(1,0,0,1,0,-40.7788)">
                            <path d="M0,80.779L2267.72,80.779" style="fill:none;stroke:white;stroke-width:1.33px;stroke-dasharray:1.33,6.67,0,0;"/>
                        </g>
                        <g transform="matrix(1,0,0,1,0,-0.77876)">
                            <path d="M0,80.779L2267.72,80.779" style="fill:none;stroke:white;stroke-width:1.33px;stroke-dasharray:1.33,6.67,0,0;"/>
                        </g>
                        <g transform="matrix(1,0,0,1,0,39.2212)">
                            <path d="M0,80.779L2267.72,80.779" style="fill:none;stroke:white;stroke-width:1.33px;stroke-dasharray:1.33,6.67,0,0;"/>
                        </g>
                    </g>
                    <g transform="matrix(1,0,0,1,0,1120)">
                        <g transform="matrix(1,0,0,1,0,-80.7788)">
                            <path d="M0,80.779L2267.72,80.779" style="fill:none;stroke:white;stroke-width:1.33px;stroke-dasharray:1.33,6.67,0,0;"/>
                        </g>
                        <g transform="matrix(1,0,0,1,0,-40.7788)">
                            <path d="M0,80.779L2267.72,80.779" style="fill:none;stroke:white;stroke-width:1.33px;stroke-dasharray:1.33,6.67,0,0;"/>
                        </g>
                        <g transform="matrix(1,0,0,1,0,-0.77876)">
                            <path d="M0,80.779L2267.72,80.779" style="fill:none;stroke:white;stroke-width:1.33px;stroke-dasharray:1.33,6.67,0,0;"/>
                        </g>
                        <g transform="matrix(1,0,0,1,0,39.2212)">
                            <path d="M0,80.779L2267.72,80.779" style="fill:none;stroke:white;stroke-width:1.33px;stroke-dasharray:1.33,6.67,0,0;"/>
                        </g>
                    </g>
                    <g transform="matrix(1,0,0,1,0,1440)">
                        <g transform="matrix(1,0,0,1,0,-80.7788)">
                            <path d="M0,80.779L2267.72,80.779" style="fill:none;stroke:white;stroke-width:1.33px;stroke-dasharray:1.33,6.67,0,0;"/>
                        </g>
                        <g transform="matrix(1,0,0,1,0,-40.7788)">
                            <path d="M0,80.779L2267.72,80.779" style="fill:none;stroke:white;stroke-width:1.33px;stroke-dasharray:1.33,6.67,0,0;"/>
                        </g>
                        <g transform="matrix(1,0,0,1,0,-0.77876)">
                            <path d="M0,80.779L2267.72,80.779" style="fill:none;stroke:white;stroke-width:1.33px;stroke-dasharray:1.33,6.67,0,0;"/>
                        </g>
                        <g transform="matrix(1,0,0,1,0,39.2212)">
                            <path d="M0,80.779L2267.72,80.779" style="fill:none;stroke:white;stroke-width:1.33px;stroke-dasharray:1.33,6.67,0,0;"/>
                        </g>
                    </g>
                    <g transform="matrix(1,0,0,1,0,1920)">
                        <g transform="matrix(1,0,0,1,0,-80.7788)">
                            <path d="M0,80.779L2267.72,80.779" style="fill:none;stroke:white;stroke-width:1.33px;stroke-dasharray:1.33,6.67,0,0;"/>
                        </g>
                        <g transform="matrix(1,0,0,1,0,-40.7788)">
                            <path d="M0,80.779L2267.72,80.779" style="fill:none;stroke:white;stroke-width:1.33px;stroke-dasharray:1.33,6.67,0,0;"/>
                        </g>
                        <g transform="matrix(1,0,0,1,0,-0.77876)">
                            <path d="M0,80.779L2267.72,80.779" style="fill:none;stroke:white;stroke-width:1.33px;stroke-dasharray:1.33,6.67,0,0;"/>
                        </g>
                        <g transform="matrix(1,0,0,1,0,39.2212)">
                            <path d="M0,80.779L2267.72,80.779" style="fill:none;stroke:white;stroke-width:1.33px;stroke-dasharray:1.33,6.67,0,0;"/>
                        </g>
                    </g>
                    <g transform="matrix(1,0,0,1,0,1760)">
                        <g transform="matrix(1,0,0,1,0,-80.7788)">
                            <path d="M0,80.779L2267.72,80.779" style="fill:none;stroke:white;stroke-width:1.33px;stroke-dasharray:1.33,6.67,0,0;"/>
                        </g>
                        <g transform="matrix(1,0,0,1,0,-40.7788)">
                            <path d="M0,80.779L2267.72,80.779" style="fill:none;stroke:white;stroke-width:1.33px;stroke-dasharray:1.33,6.67,0,0;"/>
                        </g>
                        <g transform="matrix(1,0,0,1,0,-0.77876)">
                            <path d="M0,80.779L2267.72,80.779" style="fill:none;stroke:white;stroke-width:1.33px;stroke-dasharray:1.33,6.67,0,0;"/>
                        </g>
                        <g transform="matrix(1,0,0,1,0,39.2212)">
                            <path d="M0,80.779L2267.72,80.779" style="fill:none;stroke:white;stroke-width:1.33px;stroke-dasharray:1.33,6.67,0,0;"/>
                        </g>
                    </g>
                </g>
                <g transform="matrix(6.12323e-17,-1,1,6.12323e-17,3.85827,2233.86)">
                    <g>
                        <g>
                            <g transform="matrix(1,0,0,1,0,-80.7788)">
                                <path d="M0,80.779L2267.72,80.779" style="fill:none;stroke:white;stroke-width:1.33px;stroke-dasharray:1.33,6.67,0,0;"/>
                            </g>
                            <g transform="matrix(1,0,0,1,0,-40.7788)">
                                <path d="M0,80.779L2267.72,80.779" style="fill:none;stroke:white;stroke-width:1.33px;stroke-dasharray:1.33,6.67,0,0;"/>
                            </g>
                            <g transform="matrix(1,0,0,1,0,-0.77876)">
                                <path d="M0,80.779L2267.72,80.779" style="fill:none;stroke:white;stroke-width:1.33px;stroke-dasharray:1.33,6.67,0,0;"/>
                            </g>
                            <g transform="matrix(1,0,0,1,0,39.2212)">
                                <path d="M0,80.779L2267.72,80.779" style="fill:none;stroke:white;stroke-width:1.33px;stroke-dasharray:1.33,6.67,0,0;"/>
                            </g>
                        </g>
                        <g transform="matrix(1,0,0,1,0,320)">
                            <g transform="matrix(1,0,0,1,0,-80.7788)">
                                <path d="M0,80.779L2267.72,80.779" style="fill:none;stroke:white;stroke-width:1.33px;stroke-dasharray:1.33,6.67,0,0;"/>
                            </g>
                            <g transform="matrix(1,0,0,1,0,-40.7788)">
                                <path d="M0,80.779L2267.72,80.779" style="fill:none;stroke:white;stroke-width:1.33px;stroke-dasharray:1.33,6.67,0,0;"/>
                            </g>
                            <g transform="matrix(1,0,0,1,0,-0.77876)">
                                <path d="M0,80.779L2267.72,80.779" style="fill:none;stroke:white;stroke-width:1.33px;stroke-dasharray:1.33,6.67,0,0;"/>
                            </g>
                            <g transform="matrix(1,0,0,1,0,39.2212)">
                                <path d="M0,80.779L2267.72,80.779" style="fill:none;stroke:white;stroke-width:1.33px;stroke-dasharray:1.33,6.67,0,0;"/>
                            </g>
                        </g>
                        <g transform="matrix(1,0,0,1,0,640)">
                            <g transform="matrix(1,0,0,1,0,-80.7788)">
                                <path d="M0,80.779L2267.72,80.779" style="fill:none;stroke:white;stroke-width:1.33px;stroke-dasharray:1.33,6.67,0,0;"/>
                            </g>
                            <g transform="matrix(1,0,0,1,0,-40.7788)">
                                <path d="M0,80.779L2267.72,80.779" style="fill:none;stroke:white;stroke-width:1.33px;stroke-dasharray:1.33,6.67,0,0;"/>
                            </g>
                            <g transform="matrix(1,0,0,1,0,-0.77876)">
                                <path d="M0,80.779L2267.72,80.779" style="fill:none;stroke:white;stroke-width:1.33px;stroke-dasharray:1.33,6.67,0,0;"/>
                            </g>
                            <g transform="matrix(1,0,0,1,0,39.2212)">
                                <path d="M0,80.779L2267.72,80.779" style="fill:none;stroke:white;stroke-width:1.33px;stroke-dasharray:1.33,6.67,0,0;"/>
                            </g>
                        </g>
                        <g transform="matrix(1,0,0,1,0,160)">
                            <g transform="matrix(1,0,0,1,0,-80.7788)">
                                <path d="M0,80.779L2267.72,80.779" style="fill:none;stroke:white;stroke-width:1.33px;stroke-dasharray:1.33,6.67,0,0;"/>
                            </g>
                            <g transform="matrix(1,0,0,1,0,-40.7788)">
                                <path d="M0,80.779L2267.72,80.779" style="fill:none;stroke:white;stroke-width:1.33px;stroke-dasharray:1.33,6.67,0,0;"/>
                            </g>
                            <g transform="matrix(1,0,0,1,0,-0.77876)">
                                <path d="M0,80.779L2267.72,80.779" style="fill:none;stroke:white;stroke-width:1.33px;stroke-dasharray:1.33,6.67,0,0;"/>
                            </g>
                            <g transform="matrix(1,0,0,1,0,39.2212)">
                                <path d="M0,80.779L2267.72,80.779" style="fill:none;stroke:white;stroke-width:1.33px;stroke-dasharray:1.33,6.67,0,0;"/>
                            </g>
                        </g>
                        <g transform="matrix(1,0,0,1,0,480)">
                            <g transform="matrix(1,0,0,1,0,-80.7788)">
                                <path d="M0,80.779L2267.72,80.779" style="fill:none;stroke:white;stroke-width:1.33px;stroke-dasharray:1.33,6.67,0,0;"/>
                            </g>
                            <g transform="matrix(1,0,0,1,0,-40.7788)">
                                <path d="M0,80.779L2267.72,80.779" style="fill:none;stroke:white;stroke-width:1.33px;stroke-dasharray:1.33,6.67,0,0;"/>
                            </g>
                            <g transform="matrix(1,0,0,1,0,-0.77876)">
                                <path d="M0,80.779L2267.72,80.779" style="fill:none;stroke:white;stroke-width:1.33px;stroke-dasharray:1.33,6.67,0,0;"/>
                            </g>
                            <g transform="matrix(1,0,0,1,0,39.2212)">
                                <path d="M0,80.779L2267.72,80.779" style="fill:none;stroke:white;stroke-width:1.33px;stroke-dasharray:1.33,6.67,0,0;"/>
                            </g>
                        </g>
                        <g transform="matrix(1,0,0,1,0,800)">
                            <g transform="matrix(1,0,0,1,0,-80.7788)">
                                <path d="M0,80.779L2267.72,80.779" style="fill:none;stroke:white;stroke-width:1.33px;stroke-dasharray:1.33,6.67,0,0;"/>
                            </g>
                            <g transform="matrix(1,0,0,1,0,-40.7788)">
                                <path d="M0,80.779L2267.72,80.779" style="fill:none;stroke:white;stroke-width:1.33px;stroke-dasharray:1.33,6.67,0,0;"/>
                            </g>
                            <g transform="matrix(1,0,0,1,0,-0.77876)">
                                <path d="M0,80.779L2267.72,80.779" style="fill:none;stroke:white;stroke-width:1.33px;stroke-dasharray:1.33,6.67,0,0;"/>
                            </g>
                            <g transform="matrix(1,0,0,1,0,39.2212)">
                                <path d="M0,80.779L2267.72,80.779" style="fill:none;stroke:white;stroke-width:1.33px;stroke-dasharray:1.33,6.67,0,0;"/>
                            </g>
                        </g>
                    </g>
                    <g transform="matrix(1,0,0,1,0,960)">
                        <g transform="matrix(1,0,0,1,0,-80.7788)">
                            <path d="M0,80.779L2267.72,80.779" style="fill:none;stroke:white;stroke-width:1.33px;stroke-dasharray:1.33,6.67,0,0;"/>
                        </g>
                        <g transform="matrix(1,0,0,1,0,-40.7788)">
                            <path d="M0,80.779L2267.72,80.779" style="fill:none;stroke:white;stroke-width:1.33px;stroke-dasharray:1.33,6.67,0,0;"/>
                        </g>
                        <g transform="matrix(1,0,0,1,0,-0.77876)">
                            <path d="M0,80.779L2267.72,80.779" style="fill:none;stroke:white;stroke-width:1.33px;stroke-dasharray:1.33,6.67,0,0;"/>
                        </g>
                        <g transform="matrix(1,0,0,1,0,39.2212)">
                            <path d="M0,80.779L2267.72,80.779" style="fill:none;stroke:white;stroke-width:1.33px;stroke-dasharray:1.33,6.67,0,0;"/>
                        </g>
                    </g>
                    <g transform="matrix(1,0,0,1,0,1280)">
                        <g transform="matrix(1,0,0,1,0,-80.7788)">
                            <path d="M0,80.779L2267.72,80.779" style="fill:none;stroke:white;stroke-width:1.33px;stroke-dasharray:1.33,6.67,0,0;"/>
                        </g>
                        <g transform="matrix(1,0,0,1,0,-40.7788)">
                            <path d="M0,80.779L2267.72,80.779" style="fill:none;stroke:white;stroke-width:1.33px;stroke-dasharray:1.33,6.67,0,0;"/>
                        </g>
                        <g transform="matrix(1,0,0,1,0,-0.77876)">
                            <path d="M0,80.779L2267.72,80.779" style="fill:none;stroke:white;stroke-width:1.33px;stroke-dasharray:1.33,6.67,0,0;"/>
                        </g>
                        <g transform="matrix(1,0,0,1,0,39.2212)">
                            <path d="M0,80.779L2267.72,80.779" style="fill:none;stroke:white;stroke-width:1.33px;stroke-dasharray:1.33,6.67,0,0;"/>
                        </g>
                    </g>
                    <g transform="matrix(1,0,0,1,0,1600)">
                        <g transform="matrix(1,0,0,1,0,-80.7788)">
                            <path d="M0,80.779L2267.72,80.779" style="fill:none;stroke:white;stroke-width:1.33px;stroke-dasharray:1.33,6.67,0,0;"/>
                        </g>
                        <g transform="matrix(1,0,0,1,0,-40.7788)">
                            <path d="M0,80.779L2267.72,80.779" style="fill:none;stroke:white;stroke-width:1.33px;stroke-dasharray:1.33,6.67,0,0;"/>
                        </g>
                        <g transform="matrix(1,0,0,1,0,-0.77876)">
                            <path d="M0,80.779L2267.72,80.779" style="fill:none;stroke:white;stroke-width:1.33px;stroke-dasharray:1.33,6.67,0,0;"/>
                        </g>
                        <g transform="matrix(1,0,0,1,0,39.2212)">
                            <path d="M0,80.779L2267.72,80.779" style="fill:none;stroke:white;stroke-width:1.33px;stroke-dasharray:1.33,6.67,0,0;"/>
                        </g>
                    </g>
                    <g transform="matrix(1,0,0,1,0,2080)">
                        <g transform="matrix(1,0,0,1,0,-80.7788)">
                            <path d="M0,80.779L2267.72,80.779" style="fill:none;stroke:white;stroke-width:1.33px;stroke-dasharray:1.33,6.67,0,0;"/>
                        </g>
                        <g transform="matrix(1,0,0,1,0,-40.7788)">
                            <path d="M0,80.779L2267.72,80.779" style="fill:none;stroke:white;stroke-width:1.33px;stroke-dasharray:1.33,6.67,0,0;"/>
                        </g>
                        <g transform="matrix(1,0,0,1,0,-0.77876)">
                            <path d="M0,80.779L2267.72,80.779" style="fill:none;stroke:white;stroke-width:1.33px;stroke-dasharray:1.33,6.67,0,0;"/>
                        </g>
                        <g transform="matrix(1,0,0,1,0,39.2212)">
                            <path d="M0,80.779L2267.72,80.779" style="fill:none;stroke:white;stroke-width:1.33px;stroke-dasharray:1.33,6.67,0,0;"/>
                        </g>
                    </g>
                    <g transform="matrix(1,0,0,1,0,1120)">
                        <g transform="matrix(1,0,0,1,0,-80.7788)">
                            <path d="M0,80.779L2267.72,80.779" style="fill:none;stroke:white;stroke-width:1.33px;stroke-dasharray:1.33,6.67,0,0;"/>
                        </g>
                        <g transform="matrix(1,0,0,1,0,-40.7788)">
                            <path d="M0,80.779L2267.72,80.779" style="fill:none;stroke:white;stroke-width:1.33px;stroke-dasharray:1.33,6.67,0,0;"/>
                        </g>
                        <g transform="matrix(1,0,0,1,0,-0.77876)">
                            <path d="M0,80.779L2267.72,80.779" style="fill:none;stroke:white;stroke-width:1.33px;stroke-dasharray:1.33,6.67,0,0;"/>
                        </g>
                        <g transform="matrix(1,0,0,1,0,39.2212)">
                            <path d="M0,80.779L2267.72,80.779" style="fill:none;stroke:white;stroke-width:1.33px;stroke-dasharray:1.33,6.67,0,0;"/>
                        </g>
                    </g>
                    <g transform="matrix(1,0,0,1,0,1440)">
                        <g transform="matrix(1,0,0,1,0,-80.7788)">
                            <path d="M0,80.779L2267.72,80.779" style="fill:none;stroke:white;stroke-width:1.33px;stroke-dasharray:1.33,6.67,0,0;"/>
                        </g>
                        <g transform="matrix(1,0,0,1,0,-40.7788)">
                            <path d="M0,80.779L2267.72,80.779" style="fill:none;stroke:white;stroke-width:1.33px;stroke-dasharray:1.33,6.67,0,0;"/>
                        </g>
                        <g transform="matrix(1,0,0,1,0,-0.77876)">
                            <path d="M0,80.779L2267.72,80.779" style="fill:none;stroke:white;stroke-width:1.33px;stroke-dasharray:1.33,6.67,0,0;"/>
                        </g>
                        <g transform="matrix(1,0,0,1,0,39.2212)">
                            <path d="M0,80.779L2267.72,80.779" style="fill:none;stroke:white;stroke-width:1.33px;stroke-dasharray:1.33,6.67,0,0;"/>
                        </g>
                    </g>
                    <g transform="matrix(1,0,0,1,0,1920)">
                        <g transform="matrix(1,0,0,1,0,-80.7788)">
                            <path d="M0,80.779L2267.72,80.779" style="fill:none;stroke:white;stroke-width:1.33px;stroke-dasharray:1.33,6.67,0,0;"/>
                        </g>
                        <g transform="matrix(1,0,0,1,0,-40.7788)">
                            <path d="M0,80.779L2267.72,80.779" style="fill:none;stroke:white;stroke-width:1.33px;stroke-dasharray:1.33,6.67,0,0;"/>
                        </g>
                        <g transform="matrix(1,0,0,1,0,-0.77876)">
                            <path d="M0,80.779L2267.72,80.779" style="fill:none;stroke:white;stroke-width:1.33px;stroke-dasharray:1.33,6.67,0,0;"/>
                        </g>
                        <g transform="matrix(1,0,0,1,0,39.2212)">
                            <path d="M0,80.779L2267.72,80.779" style="fill:none;stroke:white;stroke-width:1.33px;stroke-dasharray:1.33,6.67,0,0;"/>
                        </g>
                    </g>
                    <g transform="matrix(1,0,0,1,0,1760)">
                        <g transform="matrix(1,0,0,1,0,-80.7788)">
                            <path d="M0,80.779L2267.72,80.779" style="fill:none;stroke:white;stroke-width:1.33px;stroke-dasharray:1.33,6.67,0,0;"/>
                        </g>
                        <g transform="matrix(1,0,0,1,0,-40.7788)">
                            <path d="M0,80.779L2267.72,80.779" style="fill:none;stroke:white;stroke-width:1.33px;stroke-dasharray:1.33,6.67,0,0;"/>
                        </g>
                        <g transform="matrix(1,0,0,1,0,-0.77876)">
                            <path d="M0,80.779L2267.72,80.779" style="fill:none;stroke:white;stroke-width:1.33px;stroke-dasharray:1.33,6.67,0,0;"/>
                        </g>
                        <g transform="matrix(1,0,0,1,0,39.2212)">
                            <path d="M0,80.779L2267.72,80.779" style="fill:none;stroke:white;stroke-width:1.33px;stroke-dasharray:1.33,6.67,0,0;"/>
                        </g>
                    </g>
                </g>
                <g transform="matrix(1.00172,0,0,1,-3.86512,-1)">
                    <rect x="3.858" y="1" width="2240.14" height="2234" style="fill:none;"/>
                </g>
            </g>
        </g>
    </g>
</svg>
