<?xml version="1.0" encoding="UTF-8" standalone="no"?>
<!DOCTYPE svg PUBLIC "-//W3C//DTD SVG 1.1//EN" "http://www.w3.org/Graphics/SVG/1.1/DTD/svg11.dtd">
<svg width="100%" height="100%" viewBox="0 0 375 100" version="1.1" xmlns="http://www.w3.org/2000/svg" xmlns:xlink="http://www.w3.org/1999/xlink" xml:space="preserve" xmlns:serif="http://www.serif.com/" style="fill-rule:evenodd;clip-rule:evenodd;stroke-linejoin:round;stroke-miterlimit:1.41421;">
    <g transform="matrix(1,0,0,1,-91.455,-105.253)">
        <g transform="matrix(0.204918,0,0,0.204918,218.344,36.3783)">
            <path id="path4355" d="M-435.257,336.111C-487.484,338.522 -538.558,355.369 -574.183,388.65C-609.398,419.361 -626.691,464.51 -616.16,506.725C-607.418,551.26 -584.386,593.393 -551.164,628.592C-532.418,653.065 -511.535,679.764 -514.875,710.377C-514.597,751.881 -522.816,819.834 -435.257,821.955C-435.164,821.955 -435.078,821.955 -434.984,821.955C-347.425,819.834 -355.644,751.881 -355.367,710.377C-358.707,679.764 -337.824,653.065 -319.078,628.592C-285.855,593.393 -262.824,551.26 -254.082,506.725C-243.55,464.51 -260.843,419.361 -296.058,388.65C-331.683,355.369 -382.703,336.111 -434.984,336.111L-435.257,336.111ZM-436.066,357.779C-435.425,357.779 -434.793,357.779 -434.172,357.779C-381.375,360.775 -326.656,380.619 -296.058,418.44C-268.293,457.686 -272.359,508.162 -294.16,548.701C-312.062,588.908 -356.3,631.123 -374.593,671.111C-377.941,690.787 -377.254,696.404 -410.613,698.733C-418.386,698.424 -426.519,698.647 -434.984,698.733C-435.074,698.733 -435.164,698.733 -435.254,698.733C-443.722,698.654 -451.851,698.424 -459.629,698.733C-492.984,696.404 -492.297,690.787 -495.648,671.111C-513.937,631.123 -558.175,588.908 -576.078,548.701C-597.879,508.162 -601.945,457.686 -574.183,418.44C-543.586,380.619 -488.863,360.775 -436.066,357.779Z" style="fill:rgb(242,249,255);fill-rule:nonzero;"/>
        </g>
        <g transform="matrix(0.204918,0,0,0.204918,218.344,36.3783)">
            <path id="path4357" d="M-351.605,490.842C-371.597,495.514 -363.949,517.592 -381.578,530.338C-399.207,543.084 -458.461,525.549 -477.984,548.272C-511,592.041 -466.535,651.674 -464.73,672.971C-462.925,694.268 -461.39,708.397 -474.316,717.713C-476.41,719.221 -501.175,723.283 -502.847,724.803C-490.875,729.147 -426.254,730.791 -413.047,732.717C-398.687,700.518 -383.902,689.318 -439.957,610.373C-496.007,531.432 -348.047,591.471 -345.855,510.147C-342.593,496.443 -346.531,491.518 -351.605,490.842Z" style="fill:rgb(242,249,255);fill-rule:nonzero;"/>
        </g>
        <g transform="matrix(0.204918,0,0,0.204918,218.344,36.3783)">
            <path id="path4359" d="M-430.832,464.037C-449.597,461.983 -466.695,474.096 -469.121,490.971C-471.543,507.85 -458.371,523.057 -439.609,525.111C-420.843,527.166 -403.543,515.295 -401.117,498.42C-398.695,481.541 -412.07,466.092 -430.832,464.037Z" style="fill:rgb(242,249,255);fill-rule:nonzero;"/>
        </g>
        <g transform="matrix(0.204918,0,0,0.204918,218.344,36.3783)">
            <path id="path4361" d="M-491.316,456.068C-514.16,455.904 -533.906,470.096 -540.062,489.318L-541.957,489.318C-546.347,489.287 -549.976,492.256 -550.082,496.268C-550.187,500.283 -546.617,503.682 -542.226,503.713L-541.957,503.713C-541.031,527.385 -520.015,546.205 -493.754,546.393C-492.144,546.4 -490.722,546.272 -489.148,546.147C-511.418,542.295 -520.578,524.912 -521.41,503.713C-454.832,506.065 -395.09,504.108 -328.285,505.201C-323.894,505.236 -320.265,502.018 -320.16,498.006C-320.066,494.494 -322.519,491.51 -326.117,490.811C-326.632,490.705 -327.195,490.811 -327.742,490.811C-394.652,489.869 -453.711,489.647 -519.515,489.318C-514.136,472.248 -505.539,459.248 -486.168,456.318C-487.824,456.154 -489.609,456.084 -491.316,456.068Z" style="fill:rgb(242,249,255);fill-rule:nonzero;"/>
        </g>
        <g transform="matrix(0.204918,0,0,0.204918,218.344,36.3783)">
            <path id="path4363" d="M87.348,661.873L57.313,661.873L35.121,546.428L-16.211,652.936C-19.652,660.178 -24.433,663.799 -30.558,663.803C-37.433,663.799 -42.664,660.1 -46.25,652.693L-97.582,546.428L-119.547,661.873L-149.808,661.873L-115.511,510.443C-114.617,506.1 -112.64,502.315 -109.574,499.092C-106.511,495.873 -102.961,494.264 -98.925,494.26C-93.101,494.264 -87.57,499.658 -82.336,510.443L-31.23,618.4L20.102,510.443C25.332,499.658 30.86,494.264 36.688,494.26C40.571,494.264 44.16,495.955 47.45,499.334C50.285,502.397 52.227,506.1 53.278,510.443L87.348,661.873ZM147.071,661.631L120.395,661.631L120.395,496.678L147.071,496.678L147.071,661.631ZM335.993,647.381C335.993,658.006 332.625,663.318 325.907,663.322C320.973,663.318 315.446,660.022 309.321,653.42L211.141,547.154L211.141,661.631L184.688,661.631L184.688,510.928C184.688,507.065 185.657,503.725 187.602,500.904C189.539,498.088 192.305,496.678 195.895,496.678C200.825,496.678 205.907,499.498 211.141,505.131L309.321,611.154L309.321,496.678L335.993,496.678L335.993,647.381ZM541.493,577.342C541.493,601.658 534.207,621.783 519.637,637.721C505.067,653.662 486.645,661.631 464.379,661.631L378.082,661.631L378.082,496.678L464.379,496.678C486.942,496.678 505.438,504.084 519.86,518.897C534.282,533.709 541.493,553.193 541.493,577.342ZM514.817,579.756C514.817,563.822 510.071,550.779 500.582,540.635C491.09,530.49 479.02,525.42 464.379,525.416L404.532,525.416L404.532,632.893L464.379,632.893C479.02,632.897 491.09,627.986 500.582,618.162C510.071,608.342 514.813,595.541 514.817,579.756ZM791.774,661.873L761.739,661.873L739.547,546.428L688.215,652.936C684.774,660.178 679.993,663.799 673.868,663.803C666.993,663.799 661.762,660.1 658.176,652.693L606.844,546.428L584.879,661.873L554.618,661.873L588.914,510.443C589.809,506.1 591.785,502.315 594.852,499.092C597.914,495.873 601.465,494.264 605.5,494.26C611.325,494.264 616.856,499.658 622.09,510.443L673.196,618.4L724.528,510.443C729.758,499.658 735.285,494.264 741.114,494.26C744.996,494.264 748.586,495.955 751.875,499.334C754.711,502.397 756.653,506.1 757.703,510.443L791.774,661.873ZM851.5,661.631L824.825,661.631L824.825,496.678L851.5,496.678L851.5,661.631ZM1040.42,647.381C1040.42,658.006 1037.06,663.318 1030.34,663.322C1025.4,663.318 1019.88,660.022 1013.75,653.42L915.571,547.154L915.571,661.631L889.118,661.631L889.118,510.928C889.118,507.065 890.086,503.725 892.032,500.904C893.969,498.088 896.735,496.678 900.325,496.678C905.254,496.678 910.336,499.498 915.571,505.131L1013.75,611.154L1013.75,496.678L1040.42,496.678L1040.42,647.381ZM1201.99,592.315L1114.56,592.315L1114.56,563.576L1201.99,563.576L1201.99,592.315ZM1208.93,661.631L1076.68,661.631L1076.68,496.678L1208.93,496.678L1208.93,525.416L1103.36,525.416L1103.36,632.893L1208.93,632.893L1208.93,661.631Z" style="fill:rgb(242,249,255);fill-rule:nonzero;"/>
        </g>
    </g>
</svg>
